<svg width="22" height="22" viewBox="0 0 22 22" fill="none" xmlns="http://www.w3.org/2000/svg">
<path d="M21 22H14.999C14.7338 22 14.4794 21.8946 14.2919 21.7071C14.1044 21.5196 13.999 21.2652 13.999 21V15.545C14.0063 15.1469 13.9341 14.7513 13.7868 14.3814C13.6395 14.0115 13.4199 13.6746 13.141 13.3905C12.862 13.1064 12.5292 12.8807 12.162 12.7266C11.7949 12.5726 11.4007 12.4932 11.0025 12.4932C10.6043 12.4932 10.2101 12.5726 9.84297 12.7266C9.4758 12.8807 9.14301 13.1064 8.86403 13.3905C8.58506 13.6746 8.3655 14.0115 8.21818 14.3814C8.07086 14.7513 7.99873 15.1469 8.006 15.545V21C8.006 21.2652 7.90064 21.5196 7.71311 21.7071C7.52557 21.8946 7.27122 22 7.006 22H1C0.734784 22 0.48043 21.8946 0.292893 21.7071C0.105357 21.5196 0 21.2652 0 21V10.543C8.99233e-05 10.4076 0.0276051 10.2737 0.0808849 10.1493C0.134165 10.0248 0.212104 9.91248 0.31 9.81899L10.31 0.275993C10.4961 0.0989304 10.7431 0.000183105 11 0.000183105C11.2569 0.000183105 11.5039 0.0989304 11.69 0.275993L21.69 9.81899C21.7879 9.91248 21.8658 10.0248 21.9191 10.1493C21.9724 10.2737 21.9999 10.4076 22 10.543V21C22 21.2652 21.8946 21.5196 21.7071 21.7071C21.5196 21.8946 21.2652 22 21 22Z" fill="#262626"/>
</svg>
