<svg width="24" height="22" viewBox="0 0 24 22" fill="none" xmlns="http://www.w3.org/2000/svg">
<path d="M16.792 2.904C18.1064 2.97667 19.3389 3.56591 20.2208 4.54331C21.1026 5.52071 21.5624 6.80705 21.5 8.122C21.5 11.194 18.848 13.081 16.303 15.344C13.791 17.587 12.438 18.813 12 19.096C11.523 18.787 9.85701 17.273 7.69701 15.344C5.14101 13.072 2.50001 11.167 2.50001 8.122C2.43758 6.80705 2.8974 5.52071 3.77927 4.54331C4.66114 3.56591 5.89358 2.97667 7.20801 2.904C7.93616 2.88193 8.65757 3.04919 9.30173 3.3894C9.94588 3.72962 10.4907 4.23117 10.883 4.845C11.723 6.02 11.863 6.608 12.003 6.608C12.143 6.608 12.281 6.02 13.113 4.842C13.5031 4.22533 14.0481 3.7218 14.6937 3.38172C15.3393 3.04164 16.0628 2.87691 16.792 2.904ZM16.792 0.904003C15.8839 0.87493 14.981 1.05109 14.1505 1.41935C13.3199 1.78762 12.5831 2.33851 11.995 3.031C11.4074 2.34053 10.6721 1.79091 9.84356 1.42276C9.01499 1.0546 8.1143 0.877316 7.20801 0.904003C5.36288 0.976155 3.62139 1.77599 2.36435 3.1286C1.10731 4.48121 0.437007 6.27654 0.500013 8.122C0.500013 11.732 3.05001 13.949 5.51501 16.092C5.79801 16.338 6.08401 16.586 6.36801 16.839L7.39501 17.757C8.51505 18.8228 9.68928 19.8301 10.913 20.775C11.2368 20.9846 11.6143 21.0962 12 21.0962C12.3857 21.0962 12.7632 20.9846 13.087 20.775C14.3497 19.8013 15.5601 18.7615 16.713 17.66L17.635 16.836C17.928 16.576 18.225 16.317 18.52 16.062C20.854 14.037 23.5 11.742 23.5 8.122C23.563 6.27654 22.8927 4.48121 21.6357 3.1286C20.3786 1.77599 18.6371 0.976155 16.792 0.904003Z" fill="#262626"/>
</svg>
